<?xml version="1.0" encoding="UTF-8" standalone="no"?>
<!-- Created with Inkscape (http://www.inkscape.org/) -->

<svg
   xmlns:dc="http://purl.org/dc/elements/1.1/"
   xmlns:cc="http://creativecommons.org/ns#"
   xmlns:rdf="http://www.w3.org/1999/02/22-rdf-syntax-ns#"
   xmlns:svg="http://www.w3.org/2000/svg"
   xmlns="http://www.w3.org/2000/svg"
   xmlns:sodipodi="http://sodipodi.sourceforge.net/DTD/sodipodi-0.dtd"
   xmlns:inkscape="http://www.inkscape.org/namespaces/inkscape"
   width="83.111397mm"
   height="35.987602mm"
   viewBox="0 0 294.4892 127.51513"
   id="svg5050"
   version="1.1"
   inkscape:version="0.91 r13725"
   sodipodi:docname="fbfd.svg"
   inkscape:export-filename="/home/data/bms/sandbox/foxbms-frontdesk/foxbms/xrc/fbfd.png"
   inkscape:export-xdpi="75"
   inkscape:export-ydpi="75">
  <defs
     id="defs5052" />
  <sodipodi:namedview
     id="base"
     pagecolor="#ffffff"
     bordercolor="#666666"
     borderopacity="1.0"
     inkscape:pageopacity="0.0"
     inkscape:pageshadow="2"
     inkscape:zoom="0.35"
     inkscape:cx="134.59649"
     inkscape:cy="-1049.8924"
     inkscape:document-units="px"
     inkscape:current-layer="layer1"
     showgrid="false"
     fit-margin-top="0"
     fit-margin-left="0"
     fit-margin-right="0"
     fit-margin-bottom="0"
     inkscape:window-width="2560"
     inkscape:window-height="1315"
     inkscape:window-x="0"
     inkscape:window-y="1"
     inkscape:window-maximized="1" />
  <metadata
     id="metadata5055">
    <rdf:RDF>
      <cc:Work
         rdf:about="">
        <dc:format>image/svg+xml</dc:format>
        <dc:type
           rdf:resource="http://purl.org/dc/dcmitype/StillImage" />
        <dc:title></dc:title>
      </cc:Work>
    </rdf:RDF>
  </metadata>
  <g
     inkscape:label="Layer 1"
     inkscape:groupmode="layer"
     id="layer1"
     transform="translate(432.45364,622.18821)">
    <g
       id="g9293"
       transform="matrix(1.5426335,0,0,1.5426335,1221.2326,-708.16579)">
      <g
         id="g9261"
         transform="matrix(0.71504099,0,0,0.71504099,58.913881,18.491391)">
        <path
           inkscape:connector-curvature="0"
           id="path9263"
           style="fill:#f29400;fill-opacity:1;fill-rule:nonzero;stroke:none"
           d="m -1575.5427,125.72166 c -2.0444,0 -3.916,-0.27687 -5.7206,-0.84887 -0.2194,-0.0719 -0.3597,-0.29851 -0.3225,-0.52875 l 0.9556,-6.05626 c 0.022,-0.14274 0.1019,-0.26137 0.2195,-0.33212 0.082,-0.0492 0.1642,-0.0707 0.2494,-0.0707 0.054,0 0.1078,0.009 0.163,0.0264 1.0755,0.37287 2.1642,0.55512 3.3225,0.55512 3.8081,0 5.5826,-1.75063 6.3272,-6.24212 l 5.958,-35.802876 c 0.034,-0.20262 -0.023,-0.41125 -0.1559,-0.56712 -0.1331,-0.15701 -0.3285,-0.24938 -0.5347,-0.24938 l -5.4076,0 c -0.1403,0 -0.2723,-0.06 -0.3609,-0.16662 -0.094,-0.11151 -0.132,-0.24938 -0.108,-0.38613 l 1.0456,-6.061 c 0.038,-0.22912 0.2361,-0.3945 0.4688,-0.3945 l 5.7157,0 c 0.3405,0 0.6319,-0.24588 0.6895,-0.5815 l 0.5311,-3.08875 c 1.4113,-8.64375 6.6367,-12.8415 15.9758,-12.8415 2.8597,0 5.8212,0.64025 7.488,1.27575 0.2134,0.0815 0.3392,0.30088 0.2997,0.52513 l -1.0456,5.97599 c -0.025,0.145 -0.1151,0.26738 -0.2421,0.33688 -0.072,0.0371 -0.1488,0.0575 -0.2266,0.0575 -0.065,0 -0.1308,-0.0144 -0.1919,-0.0419 -0.9833,-0.43288 -3.5239,-0.95563 -5.2085,-0.95563 -4.7578,0 -6.8034,1.75775 -7.5455,6.4855 l -0.3621,2.0275 c -0.038,0.20513 0.018,0.41488 0.1511,0.57313 0.133,0.1595 0.3296,0.25187 0.5371,0.25187 l 8.6114,0 c 0.1402,0 0.2721,0.0611 0.3632,0.17025 0.091,0.10788 0.1295,0.24813 0.1057,0.386 l -1.0457,6.0575 c -0.04,0.23025 -0.2361,0.3945 -0.4676,0.3945 l -8.9339,0 c -0.343,0 -0.6342,0.24938 -0.6906,0.58638 l -6.1102,36.851996 c -1.3382,8.41475 -6.2158,12.67837 -14.4974,12.67837 m 49.1504,-14.935 c -12.5707,0 -17.0298,-9.4195 -17.0298,-17.485366 0,-12.60775 7.5251,-25.36888 21.9085,-25.36888 12.5035,0 16.9399,9.37513 16.9399,17.40375 0,12.6485 -7.4939,25.450496 -21.8186,25.450496 m 4.356,-35.927496 c -7.9927,0 -11.6342,9.86075 -11.6342,19.0225 0,6.249246 2.8849,9.981876 7.7145,9.981876 7.9952,0 11.6367,-9.863246 11.6367,-19.027376 0,-6.24687 -2.8862,-9.977 -7.717,-9.977 m 51.9908,35.843626 c -4.922,0 -7.4279,-1.80575 -9.9291,-7.15938 l -3.3429,-7.165366 c -0.1055,-0.22425 -0.3201,-0.3765 -0.5659,-0.40175 -0.023,-0.002 -0.047,-0.004 -0.07,-0.004 -0.2206,0 -0.4304,0.1055 -0.5635,0.2865 l -10.0634,13.667616 c -0.091,0.1235 -0.2302,0.19313 -0.3825,0.19313 l -9.0598,0 c -0.1846,0 -0.3489,-0.102 -0.4293,-0.26738 -0.079,-0.16075 -0.058,-0.35975 0.055,-0.50362 l 16.3702,-20.762246 c 0.1606,-0.20388 0.1954,-0.482 0.089,-0.7195 l -4.2362,-9.4735 c -1.2134,-2.639 -2.2434,-3.11975 -3.8345,-3.11975 -0.6139,0 -1.3836,0.0839 -2.1282,0.16425 l -0.01,0 c -0.1751,0 -0.2986,-0.0551 -0.3874,-0.14875 -0.1006,-0.1055 -0.1462,-0.2565 -0.1222,-0.40038 l 0.9567,-5.81175 c 0.025,-0.15825 0.1344,-0.29612 0.2819,-0.35962 1.1749,-0.506 2.7588,-0.78538 4.4567,-0.78538 4.7337,0 6.8308,1.5215 8.9771,6.51188 l 2.8189,6.58137 c 0.1007,0.23388 0.3201,0.39575 0.5742,0.42088 0.024,0.002 0.047,0.004 0.07,0.004 0.229,0 0.446,-0.11275 0.5779,-0.3045 l 8.4591,-12.34275 c 0.089,-0.12838 0.235,-0.20625 0.3921,-0.20625 l 9.0623,0 c 0.1797,0 0.3476,0.10425 0.4267,0.265 0.082,0.16425 0.062,0.356 -0.049,0.5 l -15.0633,19.57875 c -0.1643,0.21225 -0.1918,0.5 -0.072,0.73987 l 5.3356,10.711996 c 1.3645,2.68588 2.3154,3.13787 3.9316,3.13787 0.8669,0 1.7998,-0.10912 2.7745,-0.32375 0.016,0 0.032,-0.001 0.047,-0.001 0.1919,0 0.2998,0.0455 0.3825,0.12587 0.1152,0.10676 0.1668,0.265 0.1415,0.41963 l -0.9616,5.7265 c -0.026,0.15713 -0.1295,0.29137 -0.277,0.35612 -1.3296,0.58513 -2.8452,0.86938 -4.633,0.86938" />
        <text
           xml:space="preserve"
           style="font-style:normal;font-weight:normal;font-size:69.41133881px;line-height:125%;font-family:Sans;letter-spacing:0px;word-spacing:0px;fill:#4c636f;fill-opacity:1;stroke:none;stroke-width:1px;stroke-linecap:butt;stroke-linejoin:miter;stroke-opacity:1"
           x="-1452.6907"
           y="110.33476"
           id="text9265"
           sodipodi:linespacing="125%"><tspan
             sodipodi:role="line"
             id="tspan9267"
             x="-1452.6907"
             y="110.33476"
             style="font-style:normal;font-variant:normal;font-weight:300;font-stretch:normal;font-family:'Open Sans';-inkscape-font-specification:'Open Sans Light';fill:#4c636f">BMS</tspan></text>
      </g>
    </g>
    <text
       xml:space="preserve"
       style="font-style:normal;font-weight:normal;font-size:40px;line-height:125%;font-family:Sans;letter-spacing:0px;word-spacing:0px;fill:#4c636f;fill-opacity:1;stroke:none;stroke-width:1px;stroke-linecap:butt;stroke-linejoin:miter;stroke-opacity:1"
       x="-400.34299"
       y="-495.22308"
       id="text9285"
       sodipodi:linespacing="125%"><tspan
         sodipodi:role="line"
         id="tspan9287"
         x="-400.34299"
         y="-495.22308"
         style="font-style:normal;font-variant:normal;font-weight:300;font-stretch:normal;font-size:50px;font-family:Titillium;-inkscape-font-specification:'Titillium Light';fill:#4c636f">Front Desk</tspan></text>
  </g>
</svg>
